<?xml version="1.0" standalone="no"?>
<!DOCTYPE svg PUBLIC "-//W3C//DTD SVG 20010904//EN"
 "http://www.w3.org/TR/2001/REC-SVG-20010904/DTD/svg10.dtd">
<svg version="1.0" xmlns="http://www.w3.org/2000/svg"
 width="724.000000pt" height="561.000000pt" viewBox="0 0 724.000000 561.000000"
 preserveAspectRatio="xMidYMid meet">

<g transform="translate(0.000000,561.000000) scale(0.100000,-0.100000)"
fill="#000000" stroke="none">
<path d="M2980 2050 l0 -2030 615 0 615 0 0 795 0 795 190 0 c223 0 237 -4
332 -101 92 -94 126 -154 591 -1024 l249 -465 690 0 c557 0 689 2 685 13 -2 7
-189 323 -413 702 -225 380 -420 712 -434 740 -14 27 -54 79 -90 115 -77 78
-186 136 -380 204 -69 25 -118 47 -110 49 8 3 38 9 65 12 72 10 259 68 349
109 236 108 433 297 532 511 79 170 110 348 101 573 -11 287 -89 486 -259 667
-158 168 -355 270 -647 337 -96 22 -100 22 -1388 25 l-1293 4 0 -2031z m2163
1112 c121 -60 173 -160 165 -321 -7 -146 -68 -241 -192 -298 l-61 -28 -417 -3
-418 -3 0 346 0 346 428 -3 427 -3 68 -33z"/>
</g>
</svg>
